<?xml version="1.0" encoding="UTF-8"?>
<svg width="276px" height="249px" viewBox="0 0 276 249" version="1.1" xmlns="http://www.w3.org/2000/svg" xmlns:xlink="http://www.w3.org/1999/xlink">
    <!-- Generator: Sketch 43.2 (39069) - http://www.bohemiancoding.com/sketch -->
    <title>go-spatial</title>
    <desc>Created with Sketch.</desc>
    <defs></defs>
    <g id="Page-1" stroke="none" stroke-width="1" fill="none" fill-rule="evenodd">
        <g id="go-spatial">
            <g transform="translate(20.000000, 15.000000)">
                <g id="gopher" transform="translate(0.000000, 61.000000)">
                    <g id="Group">
                        <g transform="translate(65.000000, 4.000000)" id="Shape" fill-rule="nonzero">
                            <path d="M0.9,3.1 C0.9,3.1 2.5,1.3 5.6,0.7 C8.7,0.1 12.7,2.5 13.4,4 C14.2,5.5 15.4,6.7 14.3,9.2 C13.3,11.7 10.4,17 10.4,17 C10.4,17 7.7,14.2 5.3,10.2 C3.1,6.2 0.9,3.1 0.9,3.1 Z" stroke="#010101" fill="#00A8C4"></path>
                            <path d="M3.3,5.9 C3.3,5.9 4.6,4.7 5.9,4.6 C7.2,4.4 9.2,4.6 9.6,5.2 C10,5.8 11,7.6 9.8,9.7 C8.6,11.8 7.7,13.5 7.7,13.5 C7.7,13.5 5.2,9.9 4.4,8.5 C3.5,7 3.3,5.9 3.3,5.9 Z" fill="#010101"></path>
                        </g>
                        <g transform="translate(0.000000, 22.000000)" id="Shape" fill-rule="nonzero">
                            <path d="M10.7,0.3 C10.7,0.3 7.6,0.3 4.7,1.2 C1.8,2.1 0.3,5.8 0.5,9 C0.7,12.2 2.4,14.2 3.8,15.1 C5.2,16 8.7,16.5 8.7,16.5 C8.7,16.5 9.8,10.6 10.3,6.5 C10.7,2.5 10.7,0.3 10.7,0.3 Z" stroke="#010101" fill="#00A8C4"></path>
                            <path d="M9.8,5.4 C9.8,5.4 6.8,4.9 5.9,6.9 C5.1,8.9 5,9.3 5.9,10.9 C6.8,12.6 8.5,13.3 8.5,13.3 C8.5,13.3 10.3,11.4 10.6,9.5 C10.9,7.8 9.8,5.4 9.8,5.4 Z" fill="#010101"></path>
                        </g>
                        <path d="M20.2,102.9 C20.9,103.7 20.8,107.7 19.6,108.1 C18.4,108.5 16.9,108.5 16.6,107.5 C16.3,106.5 16.9,105.7 17.7,105.3 C18.8,104.7 18.4,101 20.2,102.9 Z" id="Shape" stroke="#010101" stroke-width="0.9495" fill="#CCB29B" fill-rule="nonzero"></path>
                        <g transform="translate(72.000000, 99.000000)" stroke="#010101" fill-rule="nonzero" id="Shape" stroke-width="0.75" fill="#CCB29B" stroke-linecap="round">
                            <path d="M3.5,0.8 C3.5,0.8 6.9,2.1 8.5,3.4 C10.1,4.6 10.6,5.2 10.6,6.3 C10.6,7.3 10.2,8.7 9.4,9.2 C8.7,9.6 9.1,10.1 7,10.2 C4.3,10.3 6.6,6.4 2,6 C0.1,5.8 0.2,3.4 1.6,2.6 C3.1,1.6 3.5,0.8 3.5,0.8 Z"></path>
                            <path d="M9.5,9.1 C10.1,8.3 9.9,6.3 9,6.1"></path>
                        </g>
                        <g transform="translate(82.000000, 41.000000)" stroke="#010101" fill-rule="nonzero" id="Shape" stroke-width="0.75" fill="#CCB29B" stroke-linecap="round">
                            <path d="M0.8,6.4 C0.8,6.4 1.9,4.2 3.4,2.8 C4.9,1.4 6.8,0.5 7.8,0.7 C8.8,0.9 9.2,1 9.6,1.9 C10.3,3.5 9.8,2.7 9.8,3.2 C9.8,3.2 10.6,4.3 10.1,5.3 C9.6,6.3 7.6,6.6 6,7.6 C4.5,8.7 2.8,10 2.2,8.5 C1.4,6.9 0.8,6.4 0.8,6.4 Z"></path>
                            <path d="M9.7,3.2 C9.7,3.2 9.1,2.5 7.7,3.4"></path>
                        </g>
                        <g transform="translate(23.000000, 113.000000)" stroke="#010101" fill-rule="nonzero" id="Shape" stroke-width="0.75" fill="#CCB29B" stroke-linecap="round">
                            <path d="M2.8,4.5 C1.6,6.1 -0.1,7.8 0.7,9.7 C1.1,10.6 2.3,10.9 3.2,11.1 C5,11.5 5.4,11.4 6.4,10.7 C7.4,9.9 6.1,6.9 10.3,5.2 C12,4.5 8.4,1 6.7,0.6 C5.2,0.2 4,2.8 2.8,4.5 Z"></path>
                            <path d="M3.2,11 C2.4,10.4 1.9,9.4 2.3,8.4"></path>
                        </g>
                        <path d="M10.2,26.5 C14.4,9.2 26.6,8 30.9,5.9 C36.7,3 42.5,1.7 47.5,1 C52.9,0.2 59.7,0.6 63.7,4.5 C67.6,8.4 67.9,10.1 70.1,13.5 C72.3,16.9 75.1,19.3 78,25 C80.9,30.8 80.6,38.2 82.2,42.3 C83.8,46.4 85.4,48.3 85.4,54 C85.4,59.5 84.5,73.2 83.2,80.4 C82.3,85.2 79.4,99.8 73.2,105.6 C67.2,111.2 52.7,115.7 43.1,117.4 C33.4,119.1 19.3,112.4 18.7,102.2 C18.1,92 19.6,85.2 20.2,79.8 C21.8,62.7 3.2,55.3 10.2,26.5 Z" id="Shape" stroke="#010101" fill="#00A8C4" fill-rule="nonzero"></path>
                        <g transform="translate(56.000000, 60.000000)" stroke="#010101" id="Shape">
                            <path d="M2.7,5.4 C2.7,5.4 3.9,3.8 5.5,2.5 C7.1,1.2 9.1,0.5 10.1,0.8 C11.1,1.1 11.8,2.1 11.8,2.1 C12.3,3.8 11.9,2.9 11.8,3.4 C11.8,3.4 12.8,4.8 12.2,5.7 C11.6,6.6 10.1,6.5 9.3,6.9 C8,7.5 6,7.9 5.7,8.1 C4.3,9.2 1,8.7 0.4,8.2 C-0.5,7.4 2.8,5.5 2.7,5.4 Z" stroke-width="0.9495" fill="#CCB29B" fill-rule="nonzero"></path>
                            <path d="M11.8,3.5 C11.8,3.5 11.2,2.8 9.8,3.5" stroke-width="0.75" stroke-linecap="round"></path>
                        </g>
                        <path d="M53.9,73.8 C56.2,73.7 61.2,70.8 59.7,66.8 C59.1,65.1 54.7,64.8 54.7,64.8" id="Shape" stroke="#010101" fill="#00A8C4" fill-rule="nonzero"></path>
                        <g transform="translate(41.000000, 34.000000)" id="Shape" stroke="#010101" stroke-width="0.9495" fill="#FFFFFF" fill-rule="nonzero">
                            <path d="M0,4.4 C0,4.4 0.5,5.6 0.4,6.8 C0.3,8 0.8,9.7 1.2,10 C2.1,10.7 3,11.2 4.2,10.9 C5.9,10.4 5.5,7.9 5.5,7.9 C5.5,7.9 4.3,1.4 3.6,1.5 C3.5,1.5 0.1,2.3 0,4.4 Z"></path>
                            <path d="M3.6,1.2 C3.6,1.2 5,4.8 4.9,6 C4.8,7.2 5.3,8.9 5.7,9.2 C6.6,9.9 7.5,10.4 8.7,10.1 C10.4,9.6 10,7.1 10,7.1 C10,7.1 8.8,0.6 8.1,0.7 C8,0.7 3.7,-0.9 3.6,1.2 Z"></path>
                        </g>
                        <path d="M39.4,30.6 C42.5,29.1 45.7,28.6 49.1,29.2 C52.3,29.8 53.1,31.6 53.1,32.8 C53.1,34 52.3,35.5 50.4,35.8 C48.6,36.1 47.4,34.7 44.5,35.5 C41.6,36.3 41,38.4 38.9,38.5 C36.8,38.6 35.6,37.5 35.3,36.5 C34.8,34.6 35.8,32.4 39.4,30.6 Z" id="Shape" stroke="#010101" stroke-width="0.9495" fill="#CCB29B" fill-rule="nonzero"></path>
                        <ellipse id="Oval" fill="#010101" fill-rule="nonzero" transform="translate(42.513780, 29.307940) rotate(-12.773031) translate(-42.513780, -29.307940) " cx="42.51378" cy="29.30794" rx="4.30020489" ry="2.50011912"></ellipse>
                        <g transform="translate(15.000000, 13.000000)" fill-rule="nonzero" id="Oval">
                            <circle stroke="#010101" fill="#FFFFFF" cx="11.3" cy="11" r="10.9"></circle>
                            <circle fill="#040303" cx="17.1" cy="10.8" r="3.3"></circle>
                        </g>
                        <g transform="translate(43.000000, 3.000000)" fill-rule="nonzero" id="Oval">
                            <circle stroke="#010101" fill="#FFFFFF" cx="10.9" cy="11.4" r="10.9"></circle>
                            <circle fill="#040303" cx="16.7" cy="11.2" r="3.3"></circle>
                        </g>
                    </g>
                </g>
                <g id="layers" transform="translate(93.000000, 0.000000)">
                    <g id="Group" transform="translate(0.000000, 131.000000)">
                        <polygon id="Shape" stroke="#060304" fill="#29499F" fill-rule="nonzero" points="135.3 57.3 59 57.3 9.7 3.1 62.3 1.7"></polygon>
                        <g id="Shape">
                            <path d="M39.5,18.2 C40.9,19.3 42.4,20.2 43.9,21.1 C47.7,23.2 50.3,23.8 54.6,24.5 C59.2,25.2 63.8,25.1 68.4,26.4 C72.2,27.5 77.1,30 80.2,32.2 C83.4,34.5 87.1,33.5 90.6,35.2 C94.2,36.9 97.4,41.8 101.5,42.6 C106,43.5 114.9,42.1 114.9,42.1 C114.9,42.1 105.6,33.8 102,30.9 C96.8,26.7 91.4,22.6 86.1,18.6 C78.7,13 71.3,7.5 63.8,2 C63.6,1.8 63.4,1.7 63.2,1.5 C51.3,0.8 32,1.5 32,1.5 C32,1.5 29,7.1 30,8.8 C31.7,11.7 33.2,12.2 33.7,12.7 C35.5,14.9 37.4,16.6 39.5,18.2 Z" fill="#546B9F" fill-rule="nonzero"></path>
                            <path d="M49.4,44.8 C52.3,43.7 56.3,43.6 59.4,43.9 C61.8,44.2 64.2,45 66.2,46.5 C68.1,48 69,50.1 71.5,50.8 C74.7,51.8 78.1,52.1 81.4,52.4 C88.9,53.1 96.2,53.7 103.7,52.6 C112.3,51.3 121.2,49.1 129.6,52.5 C131.4,53.2 133.6,54.4 134.2,56.3 C132.3,57.2 129.1,56.7 127,56.7 C122.7,56.8 118.4,56.8 114.1,56.9 C103.4,57.1 92.8,57.3 82.1,57.4 C74.7,57.5 67.4,57.6 60,57.8 C56.8,54.1 50.8,49.8 49.4,44.8 Z" fill="#546B9F" fill-rule="nonzero"></path>
                            <path d="M39.9,10.8 C40,15.2 45.7,17.6 50.3,18.1 C53.7,18.4 56.7,17.1 59.9,16.7 C66.6,16 71.1,21.4 77.5,22 C79.6,22.2 87.1,19.4 87.1,19.4 C87.1,19.4 77.7,11.6 75.4,10 C70.9,6.9 66.4,3.9 61.8,0.9 L42.3,2.1 C42.3,2.1 39.8,6.2 39.9,10.8 Z" fill="#66A1BC" fill-rule="nonzero"></path>
                            <path d="M55.2,53.1 C55.2,53.1 55.5,50.8 59.2,50.9 C60.9,51 61.9,51.4 63.4,52.6 C65,53.9 65.9,57.3 65.9,57.3 L59.8,56.6 L55.2,53.1 Z" fill="#66A1BC" fill-rule="nonzero"></path>
                            <polygon stroke="#060304" stroke-width="2" points="135.3 57.3 59 57.3 9.7 3.1 62.3 1.7"></polygon>
                        </g>
                    </g>
                    <g id="Group" transform="translate(9.000000, 108.000000)">
                        <polygon id="Shape" stroke="#060304" fill="#C5B230" fill-rule="nonzero" points="117.3 37.3 63.5 34.4 0.7 12.1 55.7 9.5"></polygon>
                        <g id="Shape">
                            <path d="M45.7,28.1 C45.7,28.1 52.6,28.7 57.6,28 C59.1,27.8 66.8,25.5 72.2,30.1 C75.2,32.6 77.3,32.4 81,32.7 C82,32.8 114.9,37.2 114.9,37.2 L59.6,33.7 L45.7,28.1 Z" fill="#9B8831" fill-rule="nonzero"></path>
                            <path d="M53.5,30.5 L62.4,34.4 L73.8,34.4 C72.8,29.9 68.7,27.1 64.4,27 C59.4,26.8 57.8,31.2 53.5,30.5 Z" fill="#7F722D" fill-rule="nonzero"></path>
                            <polygon stroke="#060304" stroke-width="2" points="117.3 37.3 63.5 34.4 0.7 12.1 55.7 9.5"></polygon>
                            <path d="M38.5,11.1 C36.6,12 36.9,13.7 38.4,14.9 C42,18 46.8,19.6 51.5,20.2 C58,21 65.2,18.5 71.1,22.4 C73.3,23.8 75,25.8 77.5,26.8 C80.5,28 83.7,27.2 86.8,28 C89.6,28.7 91.9,30.7 94.6,31.8 C96.8,32.7 99.3,32.9 101.7,32.4 C107.1,31.3 96.9,27.8 96.4,27.3 C93.9,25.1 92.3,22 89.7,19.9 C87.5,18.1 84.5,17.1 81.6,17.2 C80.2,17.3 78.8,17.6 77.3,17.6 C69.6,17.9 64.8,10.3 57.9,9.2 C56.4,9 54.9,9.1 53.5,9.2 C51.6,9.4 42.2,9.3 38.5,11.1 Z" fill="#9B8831" fill-rule="nonzero"></path>
                            <path d="M48.6,9.2 C52.1,5.4 57,1.6 58.7,1 C68.6,-2.3 66.7,8.3 71.4,12.1 C74.9,14.9 79.3,9.4 83.1,11.1 C85.2,12 86,14.5 87.2,16.4 C88.4,18.2 92.5,21.7 89.2,23.4 C88.3,23.9 87.2,23.9 86.2,23.9 C83.8,24 81.3,24 79.1,23.2 C76.9,22.4 75.1,20.8 73,19.6 C68.6,16.9 63.9,17 59,16.7 C51.3,16.3 50.5,16.8 47.7,14.8 C45.8,13.5 46.6,11.4 48.6,9.2 Z" fill="#7F722D" fill-rule="nonzero"></path>
                        </g>
                    </g>
                    <g id="Group" transform="translate(5.000000, 0.000000)">
                        <polygon id="Shape" stroke="#060304" fill="#74C04E" fill-rule="nonzero" points="58.7 75.4 0.5 67.8 41.8 0 121.3 16.6"></polygon>
                        <g transform="translate(22.000000, 4.000000)" id="Shape" fill-rule="nonzero" fill="#C14C27">
                            <path d="M40.6,8.2 C39,10 35.9,11 33.7,10.5 C31.5,10 31,8.2 32.5,6.5 C34.1,4.7 37.2,3.7 39.4,4.2 C41.7,4.6 42.2,6.4 40.6,8.2 Z"></path>
                            <path d="M50.5,44.3 C48.9,46.1 45.8,47.1 43.6,46.6 C41.4,46.1 40.9,44.3 42.4,42.6 C43.9,40.9 47.1,39.8 49.3,40.3 C51.6,40.7 52.1,42.5 50.5,44.3 Z"></path>
                            <path d="M58.8,12.6 C57.2,14.4 54.1,15.4 51.9,14.9 C49.7,14.4 49.2,12.6 50.7,10.9 C52.3,9.1 55.4,8.1 57.6,8.6 C59.9,9 60.4,10.8 58.8,12.6 Z"></path>
                            <path d="M72,35.6 C70.4,37.4 67.3,38.4 65.1,37.9 C62.9,37.4 62.4,35.6 63.9,33.9 C65.5,32.1 68.6,31.1 70.8,31.6 C73,32.1 73.6,33.9 72,35.6 Z"></path>
                            <path d="M28.3,4.9 C26.7,6.7 23.6,7.7 21.4,7.2 C19.2,6.7 18.7,4.9 20.2,3.2 C21.8,1.4 24.9,0.4 27.1,0.9 C29.3,1.3 29.9,3.1 28.3,4.9 Z"></path>
                            <path d="M21.8,14.7 C20.2,16.5 17.1,17.5 14.9,17 C12.7,16.5 12.2,14.7 13.7,13 C15.3,11.2 18.4,10.2 20.6,10.7 C22.9,11.1 23.4,13 21.8,14.7 Z"></path>
                            <path d="M34.1,61.3 C32.5,63.1 29.4,64.1 27.2,63.6 C25,63.1 24.5,61.3 26,59.6 C27.5,57.9 30.7,56.8 32.9,57.3 C35.2,57.8 35.7,59.6 34.1,61.3 Z"></path>
                            <path d="M45.6,69.3 C44,71.1 40.9,72.1 38.7,71.6 C36.5,71.1 36,69.3 37.5,67.6 C39.1,65.8 42.2,64.8 44.4,65.3 C46.6,65.7 47.1,67.5 45.6,69.3 Z"></path>
                            <path d="M21.8,63.1 C20.2,64.9 17.1,65.9 14.9,65.4 C12.7,64.9 12.2,63.1 13.7,61.4 C15.3,59.6 18.4,58.6 20.6,59.1 C22.8,59.6 23.4,61.3 21.8,63.1 Z"></path>
                            <path d="M49.7,54.2 C48.1,56 45,57 42.8,56.5 C40.6,56 40.1,54.2 41.6,52.5 C43.2,50.7 46.3,49.7 48.5,50.2 C50.8,50.6 51.3,52.4 49.7,54.2 Z"></path>
                            <path d="M37,50.9 C35.4,52.7 32.3,53.7 30.1,53.2 C27.9,52.7 27.4,50.9 28.9,49.2 C30.5,47.4 33.6,46.4 35.8,46.9 C38.1,47.3 38.6,49.1 37,50.9 Z"></path>
                            <path d="M9.1,61.3 C7.5,63.1 4.4,64.1 2.2,63.6 C5.68434189e-14,63.1 -0.5,61.3 1,59.6 C2.5,57.9 5.7,56.8 7.9,57.3 C10.2,57.8 10.7,59.6 9.1,61.3 Z"></path>
                            <path d="M63.7,44.3 C62.1,46.1 59,47.1 56.8,46.6 C54.6,46.1 54.1,44.3 55.6,42.6 C57.2,40.8 60.3,39.8 62.5,40.3 C64.8,40.7 65.3,42.5 63.7,44.3 Z"></path>
                        </g>
                        <polygon id="Shape" stroke="#060304" stroke-width="2" points="58.7 75.4 0.5 67.8 41.8 0 121.3 16.6"></polygon>
                    </g>
                    <g id="Group" transform="translate(9.000000, 61.000000)">
                        <polygon id="Shape" stroke="#060304" fill="#CC7829" fill-rule="nonzero" points="133.3 10.9 56.9 0.7 0.7 37 52.7 45.9"></polygon>
                        <path d="M82.8,23.8 L59.5,23.8" id="Shape" stroke="#FFFFFF" stroke-width="2.1818"></path>
                        <g transform="translate(29.000000, 8.000000)" id="Shape" stroke="#FFFFFF" stroke-width="2.1818">
                            <path d="M10.9,3.7 C10.9,3.7 13.3,9.3 16.4,13.1 C18.9,16.1 25.2,15.8 28,15.3 C35.5,14 40.2,10.1 43.1,9.5 C49.3,8 61.5,9.3 64.7,11.5 C66.6,12.8 71.1,17.2 71.1,17.2"></path>
                            <polyline points="43 27.5 27.9 32.2 19.1 29.9 8.3 35.3"></polyline>
                            <path d="M18.2,14.8 C15.7,12.1 10.8,10.5 3.5,21.3"></path>
                            <path d="M41.2,21.3 L89.6,0.5"></path>
                            <path d="M43,27.7 L42.1,19.6"></path>
                            <path d="M22,21.3 L0.9,14"></path>
                            <path d="M14.2,25.7 L35.5,13.5"></path>
                        </g>
                        <polygon id="Shape" stroke="#060304" stroke-width="2" points="133.3 10.9 56.9 0.7 0.7 37 52.7 45.9"></polygon>
                    </g>
                </g>
            </g>
        </g>
    </g>
</svg>